Coordinates
version=1
nRows=15
nColumns=34
inDegrees=yes

Units are S.I. units (second, meters, Newtons, ...)
If the header above contains a line with 'inDegrees', this indicates whether rotational values are in degrees (yes) or radians (no).

endheader
time	pelvis_tilt	pelvis_list	pelvis_rotation	pelvis_tx	pelvis_ty	pelvis_tz	hip_flexion_r	hip_adduction_r	hip_rotation_r	knee_angle_r	ankle_angle_r	subtalar_angle_r	mtp_angle_r	hip_flexion_l	hip_adduction_l	hip_rotation_l	knee_angle_l	ankle_angle_l	subtalar_angle_l	mtp_angle_l	lumbar_extension	lumbar_bending	lumbar_rotation	arm_flex_r	arm_add_r	arm_rot_r	elbow_flex_r	pro_sup_r	arm_flex_l	arm_add_l	arm_rot_l	elbow_flex_l	pro_sup_l
      1.81666670	      6.59483582	      2.65933876	      2.33185506	     -0.65169565	      0.91697209	      0.02103978	    -12.69142326	      0.45549550	    -16.52629301	      0.00000000	      7.62950179	     -1.61291718	      0.00000000	    -11.32795386	      3.81747080	    -21.27928966	      0.00000000	     12.68768400	     14.75055435	      0.00000000	     -4.99468258	     -2.02998794	     -3.92510358	      2.91395282	     -3.11032040	     15.04630530	     24.44899225	     78.93642274	      3.63519189	     -5.05461557	      7.77496552	     24.19104370	     76.15060454
      1.83333330	      6.96885497	      2.55673454	      2.15951111	     -0.65165941	      0.91846029	      0.02084190	    -13.08086486	      0.52007108	    -16.25302121	      0.00000000	      7.84453726	     -1.18279887	      0.00000000	    -11.74001269	      3.73339344	    -20.63042849	      0.00000000	     12.90051814	     13.87516402	      0.00000000	     -5.50878691	     -1.83415089	     -3.57205963	      3.00659938	     -3.28775754	     15.19953709	     24.56921225	     78.70842101	      3.63003801	     -5.03079056	      7.63751625	     24.14151127	     75.87291639
      1.85000000	      7.00635387	      2.58246761	      2.16186133	     -0.65159637	      0.91906739	      0.02038786	    -13.13704855	      0.47498943	    -16.25473401	      0.00000000	      7.82368547	     -1.15691007	      0.00000000	    -11.76484770	      3.76216124	    -20.54527175	      0.00000000	     12.79844073	     13.85069787	      0.00000000	     -5.49827789	     -1.81399972	     -3.48065022	      3.02100069	     -3.34952404	     15.20119193	     24.57656658	     78.68907655	      3.52069218	     -5.13892674	      7.61311948	     24.09583283	     75.84952080
      1.86666670	      7.05126290	      2.57872248	      2.08451461	     -0.65228095	      0.91873809	      0.01977358	    -13.15695517	      0.42080577	    -16.20707645	      0.00000000	      7.82126334	     -1.11427100	      0.00000000	    -11.79081290	      3.80168594	    -20.43113247	      0.00000000	     12.70919506	     13.79248355	      0.00000000	     -5.54445297	     -1.80994310	     -3.40852762	      3.01157381	     -3.41169970	     15.20248744	     24.57149009	     78.67173704	      3.41465726	     -5.19924621	      7.59577313	     24.05776698	     75.82905788
      1.88333330	      7.49230341	      2.61151273	      2.02930963	     -0.65422453	      0.91851824	      0.01928023	    -13.58522168	      0.33842254	    -16.00346178	      0.00000000	      8.02812836	     -0.80482758	      0.00000000	    -12.20724666	      3.89382387	    -18.83616607	      0.00000000	     11.82947748	     10.90059441	      0.00000000	     -6.25548113	     -1.78296771	     -2.97652887	      3.05908179	     -3.67974354	     15.42367931	     24.78189075	     78.17599348	      3.63541674	     -5.10555585	      7.28615722	     24.27136381	     75.27147076
      1.90000000	      7.50531570	      2.61912172	      2.04071792	     -0.65497914	      0.91813279	      0.01845117	    -13.55565643	      0.27516315	    -15.91686340	      0.00000000	      8.06795615	     -0.77473444	      0.00000000	    -12.17656031	      3.95093509	    -18.75778230	      0.00000000	     11.80094963	     10.87469944	      0.00000000	     -6.33704223	     -1.74060811	     -2.88603807	      3.11460863	     -3.71734938	     15.41909423	     24.79457973	     78.16055021	      3.50251565	     -5.19266376	      7.27155556	     24.21122105	     75.25569079
      1.91666670	      7.84980452	      2.63970152	      1.82520347	     -0.65545643	      0.91876892	      0.01752286	    -13.85441033	      0.13187967	    -15.24802958	      0.00000000	      8.53832905	     -0.74255610	      0.00000000	    -12.50339492	      4.10020589	    -17.70889481	      0.00000000	     11.13627492	      8.70784167	      0.00000000	     -6.86859780	     -1.67511708	     -2.63041667	      3.33881528	     -3.97723761	     15.49552715	     24.87347663	     77.75897328	      3.53192552	     -5.20381208	      7.08140200	     24.19934338	     74.85250889
      1.93333330	      7.90017828	      2.70491687	      1.85355690	     -0.65435877	      0.91945801	      0.01640903	    -13.93345279	     -0.02276077	    -14.80254469	      0.00000000	      8.70597013	     -0.62452773	      0.00000000	    -12.54592891	      4.23339886	    -17.24609903	      0.00000000	     11.06192112	      8.49646140	      0.00000000	     -7.00035749	     -1.74628498	     -2.57361842	      3.36302326	     -4.02399085	     15.49971202	     24.89765727	     77.67955334	      3.35139742	     -5.22862365	      7.05347847	     24.09330731	     74.77629048
      1.95000000	      8.26554803	      2.75650054	      1.90130881	     -0.65354452	      0.91990864	      0.01526768	    -14.39523043	     -0.16387980	    -14.35807064	      0.00000000	      9.04004396	     -0.77472380	      0.00000000	    -12.93836011	      4.36663399	    -15.97762217	      0.00000000	     10.40558766	      6.19811743	      0.00000000	     -7.63891171	     -1.69481151	     -2.39718119	      3.46159068	     -4.18718653	     15.53039152	     25.00178380	     77.24690809	      3.37440037	     -5.21224416	      6.82465939	     23.78312153	     74.33856693
      1.96666670	      8.31165498	      2.83155538	      1.95301340	     -0.65234009	      0.91969675	      0.01429909	    -14.60795338	     -0.34078944	    -13.88640588	      0.00000000	      9.40015087	     -0.74896572	      0.00000000	    -13.06444351	      4.51518774	    -15.54308482	      0.00000000	     10.46921262	      5.97752638	      0.00000000	     -7.66241508	     -1.78802064	     -2.30394154	      3.44374843	     -4.27439170	     15.51672790	     25.02508210	     77.16313278	      3.04251141	     -5.27669388	      6.78454621	     23.57638874	     74.25539225
      1.98333330	      8.60505440	      2.85320623	      2.02697967	     -0.65225049	      0.92008051	      0.01304390	    -15.06551058	     -0.43648009	    -13.48067782	      0.00000000	      9.66256252	     -1.12316319	      0.00000000	    -13.42923913	      4.60607875	    -14.51431525	      0.00000000	     10.02451326	      4.18827248	      0.00000000	     -8.25464674	     -1.78668474	     -2.13073575	      3.62647415	     -4.43266815	     15.49305815	     25.16137847	     76.78360756	      3.03973500	     -5.28134730	      6.48625787	     22.95010741	     73.83666822
      2.00000000	      8.57222839	      2.86625039	      2.07268497	     -0.65153486	      0.92011237	      0.01144645	    -15.16011647	     -0.55371476	    -13.37926134	      0.00000000	      9.78653441	     -1.15606343	      0.00000000	    -13.45169107	      4.71086744	    -14.31662985	      0.00000000	     10.07943048	      4.14762159	      0.00000000	     -8.34788800	     -1.78029825	     -1.92188562	      3.67383426	     -4.53903856	     15.47452915	     25.16151287	     76.75883581	      2.65063638	     -5.39030244	      6.45918344	     22.76003387	     73.80779085
      2.01666670	      8.74237678	      2.90789534	      2.10276695	     -0.65066416	      0.91971369	      0.00959630	    -15.45945285	     -0.70021494	    -12.90153449	      0.00000000	     10.27685842	     -1.51145772	      0.00000000	    -13.65582350	      4.86355612	    -13.60832439	      0.00000000	     10.29082627	      3.16539799	      0.00000000	     -8.72500034	     -1.84695391	     -1.80124841	      3.89629082	     -4.57179913	     15.45852510	     25.23068076	     76.59007524	      2.49258528	     -5.45802001	      6.20940134	     22.10453288	     73.57821676
      2.03333330	      8.69637311	      2.88911263	      2.29046821	     -0.64941398	      0.91811873	      0.00741083	    -15.53851352	     -0.76260096	    -12.89379088	      0.00000000	     10.27168333	     -1.52567992	      0.00000000	    -13.60127879	      4.91655748	    -13.56832043	      0.06155435	     10.29868612	      3.13784384	      0.00000000	     -8.82330008	     -1.80988526	     -1.59323309	      4.01933662	     -4.63687813	     15.44458511	     25.24883005	     76.58315533	      2.23975211	     -5.55934554	      6.18735727	     21.98318493	     73.56635515
      2.05000000	      8.79846152	      2.91730176	      2.27250577	     -0.64799464	      0.91627060	      0.00511952	    -15.75854219	     -0.93646571	    -12.69813561	      0.00000000	     10.46527278	     -1.76194431	      0.00000000	    -13.42026600	      5.00793845	    -13.10965054	      0.81736858	     10.99206987	      2.52462824	      0.00000000	     -9.17477189	     -1.85561609	     -1.39917311	      4.33227921	     -5.01977726	     15.36955233	     25.26221073	     76.51458093	      1.93503736	     -5.75216987	      5.99853105	     21.47898916	     73.45043005
